<?xml version="1.0" standalone="no"?>
<!DOCTYPE svg PUBLIC "-//W3C//DTD SVG 20010904//EN"
 "http://www.w3.org/TR/2001/REC-SVG-20010904/DTD/svg10.dtd">
<svg version="1.0" xmlns="http://www.w3.org/2000/svg"
 width="450.000000pt" height="450.000000pt" viewBox="0 0 450.000000 450.000000"
 preserveAspectRatio="xMidYMid meet">
<metadata>
Created by potrace 1.11, written by Peter Selinger 2001-2013
</metadata>
<g transform="translate(0.000000,450.000000) scale(0.100000,-0.100000)"
fill="#000000" stroke="none">
<path d="M2118 4275 c-2 -2 -37 -6 -78 -9 -118 -8 -241 -33 -400 -81 -30 -8
-62 -18 -70 -20 -23 -5 -231 -98 -260 -116 -8 -5 -37 -21 -65 -35 -27 -14 -64
-37 -82 -50 -17 -13 -36 -24 -41 -24 -6 0 -12 -4 -14 -8 -1 -4 -25 -23 -52
-42 -78 -56 -210 -171 -260 -228 -17 -20 -40 -45 -51 -57 -40 -42 -81 -91 -97
-116 -9 -14 -23 -32 -30 -40 -21 -21 -121 -177 -158 -244 -84 -155 -182 -447
-205 -610 -8 -59 -13 -90 -15 -90 -9 0 -15 -359 -6 -430 12 -99 39 -254 52
-300 30 -101 88 -280 96 -295 4 -8 21 -44 37 -80 39 -90 118 -220 192 -321 59
-81 182 -224 224 -262 11 -10 40 -37 65 -61 119 -111 291 -226 460 -308 133
-64 148 -70 195 -86 17 -6 39 -13 50 -18 11 -4 25 -8 30 -10 6 -1 54 -14 108
-28 55 -14 129 -31 165 -36 37 -6 78 -13 92 -16 14 -3 113 -7 220 -8 216 -3
343 11 530 59 168 42 241 70 402 150 276 138 495 320 695 575 42 55 105 147
160 235 95 152 210 489 238 695 26 195 26 447 -1 605 -35 207 -122 480 -197
615 -59 108 -82 145 -89 148 -4 2 -8 8 -8 13 0 6 -25 43 -55 84 -167 227 -324
378 -541 523 -85 57 -289 164 -364 191 -19 7 -44 17 -55 21 -61 26 -294 85
-370 95 -22 3 -51 7 -65 10 -27 6 -377 15 -382 10z"/>
</g>
</svg>
